<svg width="1249" height="344" viewBox="0 0 1249 344" fill="none" xmlns="http://www.w3.org/2000/svg">
<g clip-path="url(#clip0_81_254)">
<path d="M257.491 39.6733V31.6635C256.011 31.1798 254.786 30.7294 253.533 30.3794C230.442 23.9193 206.958 19.6027 183.11 17.2429C171.718 16.116 160.324 15.412 148.927 15.1328L148.929 15.1249C146.306 15.062 143.685 15.0246 141.062 15.0069C140.775 15.005 140.487 15.005 140.201 15.003C139.42 14.9991 138.641 14.9951 137.86 14.9951C137.081 14.9951 136.3 14.9991 135.519 15.003C135.231 15.005 134.944 15.005 134.658 15.0069C132.037 15.0246 129.414 15.062 126.791 15.1249L126.793 15.1328C115.396 15.412 104.002 16.116 92.6102 17.2429C68.76 19.6027 45.2758 23.9193 22.187 30.3794C20.9343 30.7294 19.709 31.1798 18.2293 31.6635V39.6733C18.2293 81.5469 18.5229 123.423 18.1157 165.292C17.8828 189.219 25.2033 210.417 38.3468 229.927C40.9912 233.852 43.8861 237.604 47.4465 240.941C46.781 239.968 46.1312 238.985 45.45 238.021C30.5644 216.949 22.7038 193.825 23.0189 167.654C23.5219 125.92 23.2166 84.1742 23.0678 42.4323C23.0541 38.6802 24.1678 37.1994 27.7165 36.1984C60.7329 27.1975 94.2231 22.1612 128.218 21.3648C128.218 21.3648 134.531 21.2743 137.678 21.2684C137.739 21.2684 137.799 21.2684 137.86 21.2684C137.921 21.2684 137.981 21.2684 138.042 21.2684C141.189 21.2743 144.341 21.3136 147.496 21.3864L147.502 21.3628C181.487 22.0865 214.989 26.8868 248.004 36.1964C251.552 37.1974 252.666 38.6782 252.652 42.4304C252.504 84.1723 252.2 125.916 252.701 167.652C253.016 193.823 245.156 216.947 230.27 238.019C229.589 238.981 228.939 239.966 228.274 240.939C231.834 237.602 234.729 233.85 237.373 229.925C250.515 210.413 257.837 189.217 257.604 165.29C257.197 123.423 257.491 81.5469 257.491 39.6733Z" fill="url(#paint0_linear_81_254)"/>
<path d="M238.934 162.655C241.717 161.589 244.023 159.613 245.516 156.979C249.116 150.633 247.255 142.549 241.281 138.574C240.876 138.305 240.453 138.057 240.018 137.833V50.4654H238.266C212.798 41.5313 189.022 37.3701 163.473 37.3701L159.779 37.378L161.239 40.2354C162.259 42.2334 163.03 44.3573 163.529 46.546L163.88 48.078L165.446 48.0721C165.647 48.0721 165.853 48.0721 166.052 48.0721C188.575 48.0721 211.701 52.2117 229.756 59.4505V137.08C226.947 138.038 224.479 139.921 222.696 142.5C221.688 143.955 220.832 144.423 219.178 144.423C219.079 144.423 218.979 144.421 218.875 144.417C217.139 144.36 215.297 144.334 213.077 144.334C211.441 144.334 209.781 144.348 208.176 144.364C206.699 144.378 205.172 144.389 203.672 144.391C202.338 144.393 201.003 144.393 199.638 144.393H196.002C195.998 143.821 195.992 143.257 195.986 142.7C195.961 139.969 195.935 137.387 196.051 134.816C196.188 131.776 195.238 129.42 192.972 127.18C187.393 121.67 181.758 116.024 176.309 110.567C170.613 104.862 164.721 98.9623 158.885 93.2003C157.362 91.6979 155.033 91.0568 153.361 90.9585C151.836 90.87 150.178 90.8287 148.141 90.8287C147.007 90.8287 145.849 90.8405 144.729 90.8523C144.187 90.8582 143.637 90.8641 143.083 90.868C143.057 90.459 143.04 90.0814 143.038 89.7137C143.032 87.1748 143.032 84.636 143.034 82.0972C143.036 77.114 143.038 71.9597 142.985 66.884C142.971 65.6923 143.202 65.2675 144.218 64.6087C149.217 61.364 151.537 56.542 150.746 51.0317C149.967 45.5903 146.843 41.7988 141.715 40.0663C140.345 39.6041 138.916 39.3682 137.465 39.3682C132.229 39.3682 127.375 42.4143 125.099 47.1281C123.654 50.1193 123.402 53.5332 124.386 56.7426C125.353 59.8949 127.481 62.7228 130.38 64.7051C130.523 64.8034 130.681 64.9057 130.844 65.0099C131.051 65.1437 131.362 65.3462 131.566 65.5016C131.687 67.12 131.664 68.7837 131.638 70.5398C131.636 70.646 131.636 70.7522 131.634 70.8584C130.947 70.8584 130.268 70.8604 129.597 70.8624C128.354 70.8643 127.135 70.8683 125.931 70.8683C123.046 70.8683 120.855 70.8525 118.824 70.8191C118.487 70.8132 117.788 70.4435 117.326 70.1996C114.764 68.8427 112.247 68.1564 109.841 68.1564C106.892 68.1564 104.114 69.177 101.583 71.1927C100.041 72.4218 98.7257 73.8633 97.4553 75.2576C96.7918 75.9852 96.1674 76.6715 95.5097 77.3303C91.1997 81.6567 86.8876 85.9812 82.5756 90.3056C74.7326 98.1698 66.6233 106.303 58.6589 114.315C57.735 115.243 56.7876 116.38 56.7505 117.762C56.6565 121.123 56.6683 124.413 56.68 127.896C56.6839 129.025 56.6878 130.163 56.6878 131.312V133.379L66.8288 132.869L66.9443 131.123C67.0069 130.173 67.0519 129.251 67.095 128.36C67.1929 126.327 67.2868 124.405 67.5746 122.567C67.7762 121.269 68.2988 120.028 68.9055 119.407C73.8968 114.288 79.0779 109.173 84.0886 104.225C85.4881 102.842 86.8896 101.46 88.2871 100.075C91.0529 97.336 93.8832 94.5474 96.6215 91.8513C97.377 91.1079 98.1326 90.3626 98.892 89.6153C101.989 93.3459 105.635 95.2357 109.753 95.2357C110.832 95.2357 111.955 95.104 113.091 94.8444C119.569 93.3636 123.071 88.9192 123.517 81.6253H131.685C131.699 81.8494 131.707 82.0658 131.707 82.2762C131.705 84.3686 131.703 86.459 131.703 88.5514C131.701 96.5533 131.699 104.827 131.56 112.952C131.544 113.912 131.012 115.202 130.347 115.888C124.336 122.097 118.144 128.342 112.159 134.382L107.602 139.386L122.398 139.386L137.397 124.73C141.247 128.702 156.252 144.181 156.252 144.181H145.51L137.191 135.823L128.873 144.181H105.273V144.264H102.409L101.832 144.869C101.272 145.455 100.705 146.053 100.119 146.669C99.3814 147.446 98.618 148.25 97.8135 149.09L96.3768 150.59L97.9505 151.945C98.4497 152.376 98.9155 152.763 99.3657 153.137C100.239 153.86 100.99 154.488 101.664 155.158C105.097 158.578 108.581 162.065 111.951 165.437C117.908 171.398 124.067 177.561 130.17 183.583C131.456 184.851 131.93 185.992 131.916 187.787C131.82 201.026 131.807 214.161 131.875 226.821L131.885 228.778H131.916V237.796C128.405 238.752 125.228 240.77 122.842 243.586C120.061 246.87 118.53 251.051 118.53 255.358C118.53 265.389 126.653 273.55 136.637 273.55C146.622 273.55 154.745 265.389 154.745 255.358C154.745 251.37 153.478 247.58 151.083 244.4C149.067 241.724 146.313 239.635 143.22 238.414V218.68C143.537 218.684 143.85 218.686 144.161 218.689C145.132 218.699 146.046 218.709 146.97 218.709C148.475 218.709 149.707 218.682 150.844 218.623C150.951 218.617 151.053 218.615 151.151 218.615C151.304 218.615 151.413 218.623 151.492 218.63C151.521 218.756 151.556 218.973 151.574 219.321C151.871 224.933 156.377 229.893 162.288 231.114C163.232 231.309 164.167 231.407 165.072 231.407C170.012 231.407 173.612 228.447 176.195 225.869C191.369 210.737 204.023 198.098 216.015 186.09C216.082 186.023 216.152 185.954 216.223 185.884C217.043 185.077 218.167 183.97 218.219 182.485C218.337 179.14 218.321 175.742 218.307 172.458C218.302 171.325 218.298 170.191 218.298 169.052V167.085H207.423V169.052C207.423 169.896 207.411 170.737 207.401 171.551C207.376 173.494 207.35 175.331 207.466 177.217C207.546 178.535 207.166 179.396 206.019 180.509C202.572 183.85 199.155 187.319 195.849 190.674C194.633 191.909 193.416 193.144 192.197 194.375C187.657 198.953 183.12 203.535 178.481 208.222L176.193 210.532C172.848 206.489 169.493 204.597 165.696 204.597C163.105 204.597 160.276 205.508 157.047 207.382C156.694 207.586 156.101 207.722 155.536 207.726C155.177 207.728 154.819 207.73 154.463 207.73C153.128 207.73 151.766 207.712 150.446 207.695C149.115 207.677 147.739 207.659 146.381 207.659C145.473 207.659 144.651 207.667 143.872 207.683C143.825 207.683 143.778 207.685 143.731 207.685C143.502 207.685 143.335 207.671 143.218 207.655V185.994C143.404 185.347 143.782 184.666 144.203 184.242C150.861 177.52 157.914 170.499 166.399 162.147L167.948 160.554L151.741 160.554C151.741 160.554 142.482 169.75 137.289 175.048L118.037 155.416H128.708L137.191 163.939L145.674 155.416H167.029L168.986 155.406H173.478L174.027 154.936C174.342 154.667 174.661 154.395 174.98 154.124C175.726 153.491 176.495 152.836 177.27 152.155L178.799 150.816L177.413 149.329C176.835 148.71 176.344 148.175 175.906 147.699C175.089 146.812 174.445 146.112 173.764 145.426C170.398 142.043 167.031 138.663 163.662 135.284C157.327 128.927 150.775 122.352 144.345 115.871L144.234 115.759C143.934 115.458 143.326 114.846 143.175 114.541C143.056 111.033 143.071 107.54 143.087 103.845C143.091 103.188 143.093 102.53 143.095 101.865C143.424 101.861 143.75 101.857 144.071 101.853C144.991 101.841 145.86 101.832 146.728 101.832C148.248 101.832 149.472 101.867 150.582 101.946C151.351 102.001 152.318 102.421 152.829 102.929C163.762 113.747 173.864 123.873 183.711 133.886C184.232 134.415 184.68 135.509 184.688 136.274C184.796 146.211 184.763 155.182 184.588 163.699C184.569 164.657 184.021 165.962 183.342 166.67C179.724 170.442 175.956 174.204 172.312 177.842C170.212 179.941 168.039 182.11 165.913 184.261C164.025 186.177 162.202 188.122 160.272 190.179C159.376 191.134 158.462 192.11 157.512 193.113L154.365 196.434H158.93C159.72 196.434 160.427 196.416 161.112 196.399C161.684 196.385 162.226 196.371 162.733 196.371C163.441 196.371 164.007 196.399 164.514 196.458C164.913 196.505 165.312 196.528 165.696 196.528C169.163 196.528 171.417 194.641 172.997 192.997C179.437 186.287 185.271 180.263 191.457 174.485C194.99 171.184 196.379 167.695 195.962 163.168C195.775 161.127 195.82 159.028 195.869 156.808C195.876 156.409 195.886 156.004 195.894 155.593C197.213 155.593 198.521 155.591 199.818 155.589C201.703 155.587 203.569 155.585 205.416 155.585C210.063 155.585 215.538 155.595 221.013 155.674C221.199 155.841 221.506 156.193 221.797 156.661C223.13 158.804 224.947 160.537 227.102 161.732C223.888 212.497 193.355 255.257 136.332 288.85C79.6318 255.446 49.1207 212.975 45.6191 162.578C48.5061 161.561 50.9724 159.524 53.2801 156.275C53.515 155.945 54.1217 155.597 54.3429 155.575C58.6882 155.493 63.1138 155.471 67.3945 155.449C71.0293 155.432 74.7874 155.414 78.4867 155.359H78.565C78.7275 155.359 78.8469 155.367 78.935 155.377C78.9467 155.491 78.9526 155.66 78.9448 155.902C78.8351 159.29 78.7353 163.235 78.9232 167.164C79.0054 168.863 79.8471 170.794 81.0215 171.97C90.3286 181.294 99.8609 190.698 109.078 199.793L112.09 202.766C113.466 204.125 114.842 205.431 116.299 206.814C116.972 207.453 117.655 208.102 118.35 208.766L120.949 211.256L121.623 207.712C122.94 200.784 121.223 195.646 116.062 191.048C109.37 185.089 102.942 178.552 96.7272 172.232C94.9167 170.391 93.0454 168.488 91.1918 166.623C90.6457 166.075 90.176 165.089 90.1682 164.474C90.0409 154.891 90.0448 145.369 90.1819 136.171C90.1916 135.471 90.6849 134.396 91.278 133.774C97.0051 127.774 102.744 122.018 107.602 117.178C110.176 114.614 112.775 112.124 115.527 109.485C116.776 108.288 118.045 107.072 119.336 105.826L122.842 102.441H117.98C117.236 102.441 116.51 102.457 115.807 102.475C115.122 102.49 114.476 102.506 113.834 102.506C112.926 102.506 112.188 102.475 111.511 102.41C111.182 102.378 110.855 102.361 110.536 102.361C107.209 102.361 105.058 104.109 103.554 105.633C96.3083 112.976 89.0133 120.225 81.871 127.176C79.7159 129.275 78.8195 131.473 78.9585 134.309C79.0935 137.021 79.0641 139.721 79.0348 142.576C79.0289 143.182 79.0211 143.8 79.0172 144.423C78.4574 144.464 77.9504 144.494 77.463 144.498C74.9205 144.511 72.3779 144.517 69.8353 144.521C64.893 144.531 59.7804 144.543 54.7481 144.616H54.6561C53.7303 144.616 53.4797 144.519 52.916 143.499C51.2738 140.519 48.514 138.305 45.2021 137.257V59.4485C63.2097 52.2294 86.2828 48.0898 108.755 48.0701L110.313 48.0681L110.662 46.5421C111.161 44.3514 111.932 42.2295 112.952 40.2354L114.42 37.3662L111.208 37.3701C85.7622 37.3996 62.0764 41.5608 36.6916 50.4654H34.9378V138.1C29.195 141.117 26.4567 147.54 28.2496 154.053C29.103 157.152 31.0095 159.709 33.6734 161.363C34.0668 173.909 36.1808 186.181 39.9623 197.854C44.0199 210.377 50.1249 222.617 58.1128 234.237C66.3767 246.26 76.9189 258.003 89.4459 269.137C102.36 280.618 117.794 291.815 135.316 302.421L136.326 303.033L137.336 302.421C154.741 291.886 170.086 280.765 182.946 269.367C195.422 258.309 205.939 246.652 214.207 234.717C222.199 223.179 228.335 211.03 232.443 198.601C236.25 187.099 238.433 175.013 238.934 162.655ZM236.855 150.098C236.859 150.879 236.568 151.607 236.033 152.146C235.469 152.716 234.69 153.03 233.843 153.03H233.796C232.248 153.011 231.03 151.707 231.026 150.063C231.022 148.376 232.173 147.174 233.823 147.139H233.892C235.546 147.139 236.845 148.439 236.855 150.098ZM140.388 52.8036C140.388 54.5027 139.098 55.8321 137.454 55.8321H137.428C136.684 55.8262 135.978 55.5115 135.441 54.9471C134.868 54.3454 134.57 53.5548 134.602 52.721C134.657 51.2461 136.044 49.9049 137.514 49.9049H137.555C139.119 49.9324 140.39 51.2323 140.388 52.8036ZM112.869 81.6725C112.881 82.4807 112.55 83.287 111.967 83.8829C111.419 84.4414 110.726 84.7481 110.016 84.7481H109.976C108.434 84.7245 106.995 83.2044 107.019 81.6174C107.042 79.9458 108.093 78.9095 109.763 78.9095H109.839C111.435 78.939 112.85 80.231 112.869 81.6725ZM136.635 263.273C132.288 263.273 128.753 259.719 128.753 255.354C128.753 250.988 132.29 247.432 136.635 247.432C140.981 247.432 144.518 250.986 144.518 255.354C144.518 259.721 140.981 263.273 136.635 263.273ZM165.07 220.804H165.023C163.287 220.78 162.261 219.73 162.283 217.993C162.302 216.455 163.4 215.338 164.892 215.338H164.907C166.44 215.346 167.884 216.678 167.882 218.078C167.879 219.631 166.669 220.804 165.07 220.804ZM43.9357 150.297C43.9377 150.954 43.5736 151.711 42.9649 152.325C42.3366 152.956 41.5537 153.333 40.8705 153.333H40.8373C40.1933 153.322 39.52 152.993 38.9895 152.433C38.3671 151.774 38.0246 150.907 38.0539 150.055C38.1087 148.386 39.2714 147.219 40.8823 147.219H40.9195C42.5499 147.237 43.9318 148.645 43.9357 150.297Z" fill="url(#paint1_linear_81_254)"/>
<path d="M162.631 68.6152C161.558 68.6152 160.481 68.6192 159.401 68.6211C158.315 68.6231 157.224 68.627 156.128 68.627H154.171V79.5984H156.128C157.066 79.5984 157.968 79.5807 158.839 79.565C159.667 79.5492 160.45 79.5355 161.221 79.5355C162.478 79.5355 163.488 79.5768 164.402 79.6652C165.512 79.7734 166.678 80.2336 167.234 80.7842C179.881 93.2796 193.057 106.45 206.399 119.928C206.908 120.442 207.338 121.515 207.403 122.424C207.555 124.595 207.526 126.851 207.495 129.031C207.483 129.924 207.469 130.847 207.469 131.755V133.722H218.311V131.755C218.311 130.567 218.315 129.393 218.319 128.231C218.329 124.736 218.338 121.435 218.256 118.074C218.217 116.455 217.015 115.075 216.502 114.556C203.553 101.498 189.632 87.5039 172.695 70.5169L172.646 70.4677C171.953 69.7716 170.906 68.7214 169.514 68.686C166.99 68.6231 164.51 68.6152 162.631 68.6152Z" fill="url(#paint2_linear_81_254)"/>
<path d="M56.7187 180.619C56.8929 182.664 57.8168 184.804 59.0714 186.072C73.223 200.363 87.124 214.219 102.528 229.555C103.17 230.194 104.478 231.273 106.02 231.317C107.752 231.366 109.6 231.389 112.012 231.389C113.051 231.389 114.096 231.385 115.149 231.381C116.214 231.378 117.285 231.374 118.369 231.374H120.326V220.741H118.369C117.477 220.741 116.631 220.76 115.815 220.78C115.063 220.798 114.353 220.815 113.66 220.815C112.579 220.815 111.714 220.772 110.937 220.678C109.655 220.522 108.402 220.035 107.817 219.462C103.063 214.807 98.2652 210.027 93.6263 205.405C86.9616 198.764 80.0698 191.899 73.1662 185.264C68.4177 180.702 65.8751 176.989 66.9301 171.51C66.9869 171.219 66.9732 170.975 66.9634 170.828C66.9849 169.534 66.6463 168.517 65.9534 167.801C64.9474 166.763 63.5713 166.763 63.1172 166.763C62.8452 166.763 62.579 166.777 62.3441 166.79C62.1444 166.8 61.9565 166.812 61.798 166.812C61.7393 166.812 61.6845 166.812 61.6297 166.806L61.5298 166.798C61.2069 166.773 60.8408 166.745 60.4709 166.745C60.0129 166.745 58.6212 166.745 57.5995 167.803C56.8929 168.535 56.5562 169.567 56.5954 170.875C56.6326 172.114 56.6169 173.396 56.6012 174.637C56.5719 176.586 56.5464 178.603 56.7187 180.619Z" fill="url(#paint3_linear_81_254)"/>
<path d="M275.733 145.553C275.739 141.209 275.745 136.865 275.745 132.519V116.281C275.745 86.0176 275.743 54.724 275.798 23.9476C275.801 21.7254 275.316 19.0588 271.491 18.1522C267.074 17.104 262.589 15.9595 258.254 14.8523C250.432 12.8543 242.347 10.7894 234.278 9.1985C203.329 3.09632 171.178 0.000976562 138.717 0.000976562C124.697 0.000976562 110.322 0.577174 95.9922 1.7158C65.3911 4.14449 34.8879 9.56231 5.33205 17.8179C0.883012 19.0607 -0.0173648 21.6664 0.000251259 25.1924C0.10399 45.4911 0.0922463 66.1339 0.0824596 86.0963C0.0805023 91.5534 0.0765876 97.0086 0.0765876 102.466H0.0589715V104.432C0.0589715 110.894 0.0550568 117.354 0.0511421 123.817C0.0413554 142.141 0.0315687 161.088 0.105948 179.727C0.125521 184.435 0.483715 189.304 1.1727 194.197C2.7327 205.285 5.88598 216.256 10.5445 226.805C14.8702 236.6 20.6502 246.379 27.724 255.868C41.3021 274.082 57.2251 290.31 76.4051 305.478C93.2167 318.774 112.283 331.029 134.697 342.947C135.736 343.499 136.936 343.615 137.76 343.615C139.279 343.615 140.849 343.23 141.958 342.587C144.245 341.259 146.578 339.916 148.833 338.616C158.265 333.185 168.018 327.57 177.232 321.413C192.293 311.346 205.21 301.325 216.725 290.77C229.722 278.859 240.61 266.582 250.013 253.239C267.532 228.382 275.958 203.534 275.776 177.279C275.702 166.709 275.717 155.954 275.733 145.553ZM262.435 86.2949C262.441 92.3066 262.445 98.3164 262.445 104.328C262.445 110.861 262.429 117.506 262.413 123.931C262.38 138.29 262.345 153.138 262.484 167.745C262.728 193.373 253.77 217.623 235.095 241.88C221.062 260.106 203.305 276.688 182.317 291.168C171.802 298.42 160.559 305.049 149.686 311.458C146.435 313.374 143.074 315.356 139.782 317.325C139.439 317.529 138.705 317.736 137.832 317.736C137.118 317.736 136.601 317.598 136.357 317.47C94.3304 295.372 63.9544 271.355 40.7678 241.886C21.8618 217.863 12.8482 192.465 13.2104 164.245C13.6684 128.544 13.5177 92.2457 13.3709 57.1429C13.3337 48.3406 13.2965 39.2375 13.2691 30.2858C13.2612 27.5916 13.7349 26.9505 16.2579 26.2465C54.5103 15.5819 95.4637 10.1739 137.983 10.1739C140.87 10.1739 143.81 10.1995 146.721 10.2467C185.625 10.8996 223.574 16.2741 259.512 26.2189C262.049 26.921 262.56 27.5936 262.54 30.215C262.403 48.9109 262.419 67.9156 262.435 86.2949Z" fill="url(#paint4_linear_81_254)"/>
</g>
<path d="M440.611 189.971C440.442 193.44 440.23 197.545 439.977 202.284C439.807 206.938 439.638 211.551 439.469 216.12C439.3 220.69 439.173 224.583 439.088 227.799H329.412L325.604 222.087L410.653 86.5147H357.212C354.588 86.5147 351.626 88.6304 348.326 92.8617C345.11 97.0084 342.614 103.355 340.837 111.903L332.966 110.253L336.648 71.282C341.133 72.2975 344.899 72.8899 347.945 73.0591C351.076 73.2284 355.012 73.313 359.751 73.313H436.041L439.342 78.7714L355.054 214.597H416.366C419.835 214.597 422.67 212.651 424.871 208.758C427.156 204.865 429.864 197.926 432.995 187.94L440.611 189.971ZM578.219 76.6134C578.135 80.7601 577.711 85.5839 576.95 91.0846C576.188 96.5853 575.342 101.917 574.411 107.079H567.937C566.329 99.5472 564.933 94.0465 563.748 90.5768C562.648 87.1071 560.363 85.3723 556.893 85.3723H511.703L515.257 73.313H574.411L578.219 76.6134ZM466.639 85.3723C465.031 85.3723 463.55 85.9224 462.196 87.0225C460.927 88.1226 459.488 90.2806 457.88 93.4964C456.357 96.7122 454.368 101.494 451.914 107.841L445.821 105.302C446.159 100.563 446.709 95.1043 447.471 88.9266C448.317 82.7489 449.164 77.5443 450.01 73.313H521.223L524.143 85.3723H466.639ZM481.745 227.799V221.579C489.277 220.055 494.439 218.49 497.232 216.882C500.024 215.274 501.421 213.878 501.421 212.693V84.4837C501.421 83.4682 500.024 82.6642 497.232 82.0718C494.439 81.4795 490.123 80.6332 484.284 79.5331V73.313H541.026V79.5331C535.61 80.6332 531.378 81.4371 528.332 81.9449C525.285 82.4527 523.762 83.2989 523.762 84.4837V212.693C523.762 213.793 525.158 215.189 527.951 216.882C530.744 218.49 535.864 220.055 543.311 221.579V227.799H481.745ZM624.811 173.722L611.863 213.201C611.017 215.74 612.075 217.601 615.037 218.786C617.999 219.886 622.78 220.817 629.381 221.579V227.799H578.224V221.579C583.725 220.563 588.041 219.548 591.172 218.532C594.388 217.432 596.377 215.655 597.138 213.201L641.567 77.1212C643.937 74.667 646.772 72.5514 650.072 70.7742C653.457 68.9124 656.462 67.4314 659.085 66.3313L709.988 213.201C710.75 215.486 712.23 217.305 714.431 218.659C716.716 219.929 720.439 220.902 725.601 221.579V227.799H672.033V221.579C678.295 221.156 682.653 220.352 685.108 219.167C687.562 217.898 688.323 215.909 687.393 213.201L673.81 173.722H624.811ZM669.748 161.663L648.803 100.224L628.746 161.663H669.748ZM852.8 217.009C847.046 220.817 841.376 224.16 835.79 227.037C830.29 229.914 826.566 231.353 824.62 231.353C821.827 231.353 819.457 229.661 817.511 226.276C815.649 222.89 814.422 217.094 813.83 208.885C804.013 218.448 795.804 224.583 789.203 227.291C782.687 229.999 776.89 231.353 771.813 231.353C766.904 231.353 762.25 230.338 757.849 228.307C753.533 226.36 749.979 222.721 747.186 217.39C744.478 211.974 743.124 204.273 743.124 194.287V143.13C743.124 138.052 742.87 134.413 742.363 132.213C741.855 129.928 740.543 128.447 738.428 127.77C736.312 127.009 732.842 126.416 728.018 125.993V120.154C734.281 119.477 739.782 118.588 744.521 117.488C749.344 116.303 754.549 114.653 760.134 112.537L763.815 117.488V187.432C763.815 198.264 765.296 205.627 768.258 209.519C771.22 213.412 775.409 215.359 780.825 215.359C785.48 215.359 790.431 213.962 795.677 211.17C800.924 208.292 806.975 203.342 813.83 196.318V143.13C813.83 138.306 813.449 134.71 812.687 132.34C812.01 129.97 810.529 128.363 808.244 127.516C805.96 126.67 802.363 126.162 797.455 125.993V120.154C803.717 119.477 809.641 118.419 815.226 116.98C820.811 115.457 825.974 113.976 830.713 112.537L834.521 117.488V196.318C834.521 206.219 835.452 211.889 837.314 213.328C838.245 214.005 839.768 214.174 841.884 213.835C844.084 213.412 847.173 212.354 851.15 210.662L852.8 217.009ZM932.143 212.566C923.68 218.828 915.852 223.525 908.659 226.656C901.466 229.788 895.753 231.353 891.522 231.353C885.683 231.353 880.563 229.026 876.162 224.371C871.846 219.632 869.688 211.677 869.688 200.507V128.532H854.583L851.79 124.851L861.056 116.092H869.688V87.7841L886.444 73.8208L890.38 77.1212V116.092H928.462L932.143 119.9C930.704 122.185 928.758 124.681 926.304 127.389C923.849 130.097 921.818 131.875 920.21 132.721C918.349 131.79 915.471 130.859 911.579 129.928C907.686 128.997 902.82 128.532 896.98 128.532H890.38V189.971C890.38 199.195 891.31 205.542 893.172 209.012C895.119 212.397 898.208 214.089 902.439 214.089C905.232 214.089 908.659 213.539 912.721 212.439C916.783 211.254 921.945 209.012 928.208 205.711L932.143 212.566ZM1010.22 227.799V221.706C1021.13 218.828 1026.59 216.374 1026.59 214.343V153.666C1026.59 143.934 1025.41 137.545 1023.04 134.498C1020.75 131.367 1017.03 129.801 1011.87 129.801C1006.7 129.801 1000.78 132.298 994.095 137.291C987.494 142.199 980.85 149.435 974.165 158.997V214.343C974.165 215.528 975.604 216.797 978.481 218.151C981.443 219.421 985.463 220.606 990.54 221.706V227.799H937.099V221.706C942.345 220.267 946.365 219.04 949.158 218.024C952.035 216.924 953.474 215.697 953.474 214.343V72.9322C953.474 68.447 953.178 65.2312 952.585 63.2847C951.993 61.2537 950.554 59.8574 948.269 59.0957C945.984 58.3341 942.261 57.6571 937.099 57.0647V51.2255C944.376 50.0407 950.385 48.7713 955.124 47.4173C959.863 45.9786 964.645 44.0745 969.468 41.705L974.165 46.0209V142.495C981.612 133.017 989.736 125.655 998.537 120.408C1007.34 115.161 1014.83 112.537 1021.01 112.537C1027.86 112.537 1033.95 114.738 1039.29 119.138C1044.62 123.454 1047.28 130.394 1047.28 139.956V214.343C1047.28 215.443 1048.47 216.543 1050.84 217.644C1053.21 218.659 1057.52 220.013 1063.78 221.706V227.799H1010.22ZM1113.25 102.956L1138.97 82.7562C1140.44 83.7129 1142.35 85.0007 1144.71 86.6196C1147.06 88.2386 1148.79 89.6367 1149.89 90.8141L1149.78 95.4502L1117.11 109.248L1147.24 121.832C1147.17 123.524 1147.02 125.805 1146.8 128.675C1146.58 131.545 1146.18 133.753 1145.59 135.298L1141.39 137.727L1113.47 115.981L1117.66 148.434C1116.26 149.317 1114.24 150.347 1111.59 151.525C1109.02 152.702 1106.99 153.438 1105.52 153.732L1101.21 151.414L1105.85 115.981L1080.13 136.071C1078.73 135.114 1076.82 133.79 1074.39 132.097C1072.04 130.405 1070.38 129.08 1069.42 128.123V123.156L1102.21 109.469L1071.85 96.9956C1072 95.303 1072.18 92.985 1072.4 90.0415C1072.63 87.0979 1072.99 84.9271 1073.51 83.5289L1077.59 81.2109L1105.85 103.067L1101.44 70.1726C1102.91 69.3632 1104.97 68.3697 1107.62 67.1923C1110.34 65.9413 1112.47 65.1318 1114.02 64.7639L1117.88 67.4131L1113.25 102.956Z" fill="black"/>
<defs>
<linearGradient id="paint0_linear_81_254" x1="137.86" y1="14.9951" x2="137.86" y2="240.941" gradientUnits="userSpaceOnUse">
<stop/>
<stop offset="1" stop-color="#494646"/>
</linearGradient>
<linearGradient id="paint1_linear_81_254" x1="137.526" y1="37.3662" x2="137.526" y2="303.033" gradientUnits="userSpaceOnUse">
<stop/>
<stop offset="1" stop-color="#494646"/>
</linearGradient>
<linearGradient id="paint2_linear_81_254" x1="223.11" y1="75.7617" x2="252.547" y2="204.512" gradientUnits="userSpaceOnUse">
<stop/>
<stop offset="1" stop-color="#838383"/>
</linearGradient>
<linearGradient id="paint3_linear_81_254" x1="116.742" y1="166.745" x2="192.033" y2="263.498" gradientUnits="userSpaceOnUse">
<stop stop-color="#8F8F8F"/>
<stop offset="1" stop-color="#838383"/>
</linearGradient>
<linearGradient id="paint4_linear_81_254" x1="137.899" y1="0.000976562" x2="137.899" y2="343.615" gradientUnits="userSpaceOnUse">
<stop/>
<stop offset="1" stop-color="#494646"/>
</linearGradient>
<clipPath id="clip0_81_254">
<rect width="275.797" height="343.616" fill="white"/>
</clipPath>
</defs>
</svg>
