<svg width="325" height="404" viewBox="0 0 325 404" fill="none" xmlns="http://www.w3.org/2000/svg">
<path d="M302.839 47.3151V37.9162C301.103 37.3485 299.665 36.8201 298.195 36.4093C271.099 28.8288 243.542 23.7637 215.558 20.9945C202.191 19.6723 188.821 18.8461 175.447 18.5185L175.449 18.5092C172.371 18.4354 169.296 18.3915 166.218 18.3708C165.88 18.3685 165.543 18.3685 165.207 18.3662C164.291 18.3615 163.377 18.3569 162.46 18.3569C161.546 18.3569 160.63 18.3615 159.713 18.3662C159.376 18.3685 159.038 18.3685 158.703 18.3708C155.627 18.3915 152.55 18.4354 149.472 18.5092L149.474 18.5185C136.1 18.8461 122.73 19.6723 109.363 20.9945C81.3763 23.7637 53.8192 28.8288 26.7261 36.4093C25.2561 36.8201 23.8183 37.3485 22.0819 37.9162V47.3151C22.0819 96.4509 22.4264 145.589 21.9487 194.72C21.6754 222.797 30.2654 247.671 45.6885 270.564C48.7915 275.17 52.1885 279.573 56.3664 283.489C55.5854 282.347 54.8229 281.193 54.0236 280.062C36.5564 255.336 27.3324 228.201 27.7022 197.492C28.2925 148.52 27.9342 99.5339 27.7596 50.5526C27.7436 46.1497 29.0504 44.4121 33.2146 43.2375C71.9571 32.6756 111.255 26.7658 151.146 25.8313C151.146 25.8313 158.554 25.7251 162.247 25.7182C162.318 25.7182 162.389 25.7182 162.46 25.7182C162.532 25.7182 162.603 25.7182 162.674 25.7182C166.367 25.7251 170.065 25.7713 173.768 25.8567L173.775 25.829C213.654 26.6782 252.966 32.311 291.706 43.2352C295.87 44.4098 297.177 46.1474 297.161 50.5503C296.987 99.5316 296.631 148.515 297.219 197.489C297.589 228.199 288.365 255.334 270.897 280.06C270.098 281.189 269.335 282.345 268.555 283.487C272.732 279.571 276.129 275.168 279.232 270.562C294.653 247.666 303.246 222.795 302.972 194.718C302.494 145.589 302.839 96.4509 302.839 47.3151Z" fill="url(#paint0_linear_81_151)"/>
<path d="M281.066 191.626C284.332 190.375 287.037 188.056 288.79 184.966C293.014 177.52 290.829 168.033 283.82 163.369C283.344 163.053 282.848 162.762 282.338 162.499V59.9794H280.283C250.397 49.4959 222.497 44.613 192.517 44.613L188.183 44.6222L189.896 47.9752C191.093 50.3197 191.998 52.8119 192.584 55.3803L192.995 57.1779L194.832 57.171C195.069 57.171 195.31 57.171 195.544 57.171C221.974 57.171 249.11 62.0285 270.296 70.5228V161.616C267 162.739 264.104 164.95 262.011 167.975C260.829 169.683 259.825 170.232 257.884 170.232C257.767 170.232 257.65 170.23 257.528 170.225C255.491 170.158 253.33 170.128 250.725 170.128C248.805 170.128 246.857 170.144 244.974 170.163C243.24 170.179 241.448 170.193 239.689 170.195C238.122 170.198 236.556 170.198 234.955 170.198H230.688C230.683 169.526 230.676 168.864 230.669 168.211C230.639 165.005 230.61 161.976 230.745 158.959C230.906 155.392 229.792 152.627 227.132 149.999C220.586 143.533 213.974 136.908 207.579 130.504C200.896 123.81 193.982 116.887 187.133 110.126C185.346 108.363 182.613 107.611 180.652 107.495C178.862 107.391 176.917 107.343 174.526 107.343C173.196 107.343 171.837 107.357 170.523 107.371C169.887 107.378 169.241 107.385 168.591 107.389C168.561 106.909 168.541 106.466 168.538 106.035C168.531 103.055 168.531 100.076 168.534 97.0972C168.536 91.2497 168.538 85.2015 168.476 79.2456C168.46 77.8472 168.731 77.3487 169.923 76.5757C175.789 72.7681 178.511 67.1099 177.583 60.6439C176.669 54.2588 173.003 49.8097 166.986 47.7767C165.378 47.2345 163.701 46.9575 161.999 46.9575C155.855 46.9575 150.159 50.532 147.488 56.0634C145.793 59.5732 145.497 63.5792 146.652 67.3452C147.787 71.0443 150.283 74.3627 153.685 76.6887C153.853 76.8041 154.039 76.9241 154.229 77.0464C154.473 77.2033 154.838 77.441 155.077 77.6233C155.219 79.5225 155.192 81.4747 155.162 83.5354C155.159 83.66 155.159 83.7846 155.157 83.9092C154.351 83.9092 153.554 83.9115 152.766 83.9138C151.308 83.9162 149.877 83.9208 148.464 83.9208C145.079 83.9208 142.509 83.9023 140.125 83.8631C139.729 83.8562 138.91 83.4223 138.367 83.1362C135.361 81.5439 132.407 80.7386 129.584 80.7386C126.123 80.7386 122.864 81.9362 119.894 84.3015C118.084 85.7438 116.541 87.4353 115.05 89.0713C114.272 89.9252 113.539 90.7305 112.767 91.5036C107.71 96.5803 102.65 101.655 97.59 106.729C88.3867 115.957 78.871 125.502 69.5253 134.903C68.4412 135.992 67.3295 137.326 67.2859 138.948C67.1756 142.892 67.1894 146.752 67.2032 150.839C67.2078 152.164 67.2124 153.5 67.2124 154.847V157.273L79.1122 156.675L79.2477 154.626C79.3212 153.511 79.374 152.429 79.4245 151.384C79.5394 148.998 79.6496 146.743 79.9872 144.585C80.2238 143.062 80.8371 141.606 81.5491 140.877C87.4059 134.87 93.4856 128.868 99.3654 123.062C101.008 121.44 102.652 119.818 104.292 118.193C107.537 114.979 110.859 111.707 114.072 108.543C114.958 107.671 115.845 106.796 116.736 105.919C120.37 110.297 124.649 112.514 129.481 112.514C130.747 112.514 132.065 112.36 133.397 112.055C141 110.317 145.109 105.102 145.632 96.5434H155.217C155.233 96.8064 155.242 97.0603 155.242 97.3072C155.24 99.7625 155.238 102.215 155.238 104.671C155.235 114.06 155.233 123.769 155.07 133.304C155.051 134.43 154.427 135.943 153.646 136.749C146.592 144.034 139.328 151.363 132.304 158.45L126.957 164.321L144.319 164.321L161.919 147.124C166.437 151.785 184.044 169.948 184.044 169.948H171.439L161.678 160.141L151.916 169.948H124.224V170.045H120.864L120.186 170.756C119.529 171.444 118.863 172.145 118.176 172.867C117.31 173.779 116.415 174.723 115.471 175.708L113.785 177.469L115.631 179.059C116.217 179.564 116.764 180.019 117.292 180.457C118.316 181.306 119.198 182.042 119.988 182.829C124.017 186.842 128.105 190.934 132.06 194.891C139.05 201.886 146.278 209.118 153.439 216.184C154.948 217.672 155.504 219.01 155.488 221.117C155.375 236.652 155.359 252.064 155.44 266.921L155.451 269.217H155.488V279.8C151.367 280.921 147.64 283.289 144.84 286.593C141.576 290.447 139.78 295.353 139.78 300.407C139.78 312.178 149.312 321.754 161.028 321.754C172.744 321.754 182.276 312.178 182.276 300.407C182.276 295.727 180.79 291.28 177.978 287.549C175.613 284.408 172.381 281.957 168.752 280.524V257.367C169.124 257.372 169.492 257.374 169.857 257.379C170.996 257.39 172.069 257.402 173.153 257.402C174.919 257.402 176.364 257.37 177.698 257.3C177.824 257.293 177.944 257.291 178.059 257.291C178.238 257.291 178.366 257.3 178.458 257.31C178.493 257.457 178.534 257.711 178.555 258.12C178.904 264.706 184.191 270.525 191.127 271.958C192.234 272.187 193.332 272.302 194.393 272.302C200.191 272.302 204.414 268.829 207.446 265.804C225.251 248.047 240.1 233.216 254.172 219.126C254.251 219.047 254.333 218.966 254.416 218.883C255.378 217.937 256.697 216.638 256.759 214.896C256.897 210.971 256.878 206.983 256.862 203.129C256.855 201.8 256.851 200.469 256.851 199.133V196.825H244.089V199.133C244.089 200.123 244.076 201.11 244.064 202.066C244.034 204.345 244.005 206.501 244.14 208.714C244.234 210.26 243.789 211.271 242.443 212.577C238.398 216.497 234.388 220.568 230.508 224.505C229.082 225.954 227.654 227.403 226.223 228.848C220.896 234.22 215.572 239.596 210.129 245.096L207.444 247.807C203.519 243.063 199.582 240.843 195.126 240.843C192.085 240.843 188.766 241.911 184.977 244.11C184.563 244.35 183.867 244.509 183.203 244.514C182.783 244.516 182.363 244.519 181.945 244.519C180.378 244.519 178.78 244.498 177.232 244.477C175.67 244.456 174.055 244.436 172.461 244.436C171.396 244.436 170.431 244.445 169.517 244.463C169.462 244.463 169.407 244.466 169.351 244.466C169.083 244.466 168.887 244.449 168.75 244.431V219.013C168.968 218.253 169.411 217.455 169.905 216.957C177.719 209.069 185.994 200.831 195.951 191.031L197.769 189.161L178.751 189.161C178.751 189.161 167.886 199.952 161.793 206.169L139.201 183.132H151.723L161.678 193.133L171.632 183.132H196.69L198.987 183.12H204.258L204.901 182.569C205.271 182.252 205.646 181.934 206.02 181.616C206.895 180.873 207.798 180.104 208.707 179.306L210.501 177.734L208.875 175.99C208.197 175.263 207.621 174.635 207.106 174.077C206.149 173.036 205.393 172.214 204.594 171.409C200.643 167.44 196.693 163.473 192.74 159.509C185.305 152.048 177.618 144.334 170.073 136.728L169.942 136.596C169.59 136.243 168.876 135.526 168.699 135.168C168.559 131.051 168.577 126.953 168.596 122.617C168.6 121.846 168.603 121.073 168.605 120.293C168.991 120.289 169.374 120.284 169.751 120.279C170.831 120.266 171.85 120.254 172.868 120.254C174.652 120.254 176.088 120.296 177.39 120.388C178.293 120.452 179.427 120.946 180.027 121.542C192.857 134.236 204.711 146.118 216.266 157.868C216.877 158.489 217.403 159.772 217.412 160.669C217.538 172.33 217.499 182.857 217.295 192.851C217.272 193.975 216.629 195.507 215.832 196.338C211.587 200.764 207.166 205.179 202.889 209.448C200.425 211.91 197.875 214.455 195.381 216.98C193.165 219.227 191.026 221.509 188.762 223.923C187.71 225.045 186.637 226.189 185.523 227.366L181.83 231.264H187.186C188.114 231.264 188.943 231.243 189.747 231.222C190.418 231.206 191.054 231.19 191.649 231.19C192.48 231.19 193.144 231.222 193.739 231.291C194.207 231.347 194.676 231.374 195.126 231.374C199.194 231.374 201.84 229.159 203.693 227.23C211.25 219.356 218.097 212.288 225.354 205.509C229.5 201.634 231.131 197.54 230.642 192.228C230.421 189.833 230.474 187.371 230.531 184.765C230.541 184.297 230.552 183.822 230.561 183.339C232.109 183.339 233.644 183.337 235.166 183.335C237.378 183.332 239.567 183.33 241.735 183.33C247.188 183.33 253.612 183.342 260.036 183.434C260.254 183.63 260.615 184.043 260.957 184.592C262.521 187.108 264.653 189.141 267.182 190.544C263.41 250.112 227.582 300.289 160.669 339.707C94.1356 300.51 58.3329 250.673 54.224 191.536C57.6117 190.343 60.5057 187.952 63.2137 184.14C63.4893 183.752 64.2013 183.344 64.4608 183.319C69.5597 183.222 74.7528 183.196 79.7759 183.171C84.0411 183.15 88.451 183.129 92.7919 183.065H92.8838C93.0744 183.065 93.2145 183.074 93.3179 183.086C93.3317 183.219 93.3386 183.418 93.3294 183.702C93.2008 187.678 93.0836 192.307 93.3041 196.917C93.4006 198.911 94.3882 201.177 95.7663 202.557C106.688 213.497 117.873 224.532 128.689 235.205L132.224 238.694C133.838 240.289 135.453 241.821 137.162 243.443C137.952 244.193 138.753 244.955 139.569 245.735L142.619 248.656L143.409 244.498C144.955 236.368 142.94 230.338 136.884 224.943C129.031 217.951 121.488 210.281 114.196 202.864C112.071 200.704 109.876 198.47 107.701 196.283C107.06 195.639 106.508 194.483 106.499 193.76C106.35 182.516 106.355 171.342 106.515 160.549C106.527 159.728 107.106 158.466 107.802 157.736C114.522 150.696 121.256 143.942 126.957 138.263C129.977 135.253 133.027 132.332 136.257 129.235C137.722 127.83 139.21 126.404 140.726 124.941L144.84 120.969H139.135C138.262 120.969 137.41 120.988 136.585 121.009C135.781 121.027 135.023 121.046 134.27 121.046C133.204 121.046 132.338 121.009 131.544 120.932C131.158 120.896 130.774 120.875 130.4 120.875C126.495 120.875 123.971 122.926 122.207 124.715C113.704 133.331 105.144 141.837 96.7631 149.994C94.2343 152.457 93.1824 155.037 93.3455 158.364C93.5039 161.546 93.4695 164.715 93.435 168.065C93.4281 168.776 93.419 169.501 93.4144 170.232C92.7575 170.281 92.1626 170.315 91.5907 170.32C88.6072 170.336 85.6236 170.343 82.64 170.348C76.8406 170.359 70.8414 170.373 64.9363 170.458H64.8283C63.7419 170.458 63.4479 170.345 62.7864 169.148C60.8594 165.652 57.6209 163.053 53.7347 161.823V70.5205C74.8654 62.0493 101.94 57.1918 128.31 57.1687L130.138 57.1664L130.547 55.3757C131.133 52.805 132.037 50.3151 133.234 47.9752L134.957 44.6084L131.188 44.613C101.329 44.6476 73.5355 49.5305 43.7482 59.9794H41.6903V162.813C34.9514 166.353 31.7382 173.89 33.8421 181.532C34.8435 185.169 37.0806 188.169 40.2065 190.11C40.6682 204.832 43.1487 219.232 47.5862 232.93C52.3475 247.625 59.5112 261.987 68.8845 275.623C78.5816 289.732 90.9522 303.51 105.652 316.576C120.806 330.048 138.916 343.187 159.477 355.632L160.663 356.35L161.848 355.632C182.271 343.27 200.278 330.221 215.368 316.846C230.008 303.87 242.349 290.191 252.05 276.186C261.428 262.647 268.629 248.391 273.45 233.807C277.917 220.31 280.478 206.127 281.066 191.626ZM278.627 176.892C278.631 177.808 278.289 178.662 277.662 179.294C277 179.963 276.086 180.333 275.092 180.333H275.037C273.22 180.309 271.791 178.78 271.787 176.85C271.782 174.87 273.133 173.46 275.069 173.419H275.149C277.09 173.419 278.615 174.944 278.627 176.892ZM165.428 62.7231C165.428 64.7169 163.915 66.2768 161.986 66.2768H161.956C161.083 66.2699 160.254 65.9007 159.624 65.2384C158.951 64.5323 158.602 63.6046 158.639 62.6262C158.703 60.8955 160.332 59.3217 162.057 59.3217H162.105C163.94 59.354 165.431 60.8793 165.428 62.7231ZM133.138 96.5988C133.151 97.5472 132.763 98.4933 132.079 99.1925C131.436 99.8479 130.623 100.208 129.789 100.208H129.743C127.933 100.18 126.245 98.3964 126.272 96.5341C126.3 94.5727 127.533 93.3566 129.493 93.3566H129.582C131.454 93.3912 133.115 94.9073 133.138 96.5988ZM161.025 309.695C155.924 309.695 151.776 305.525 151.776 300.402C151.776 295.279 155.927 291.107 161.025 291.107C166.124 291.107 170.275 295.277 170.275 300.402C170.275 305.527 166.124 309.695 161.025 309.695ZM194.391 259.86H194.336C192.299 259.832 191.095 258.6 191.121 256.562C191.144 254.757 192.432 253.447 194.182 253.447H194.201C195.999 253.456 197.694 255.018 197.692 256.661C197.687 258.484 196.268 259.86 194.391 259.86ZM52.2487 177.125C52.251 177.896 51.8238 178.784 51.1095 179.504C50.3722 180.245 49.4535 180.688 48.6519 180.688H48.6129C47.8572 180.674 47.0671 180.289 46.4447 179.631C45.7143 178.858 45.3123 177.84 45.3468 176.841C45.4111 174.882 46.7754 173.514 48.6657 173.514H48.7093C50.6226 173.534 52.2441 175.187 52.2487 177.125Z" fill="url(#paint1_linear_81_151)"/>
<path d="M191.523 81.2778C190.265 81.2778 189.002 81.2824 187.734 81.2848C186.459 81.2871 185.18 81.2917 183.893 81.2917H181.597V94.1658H183.893C184.994 94.1658 186.052 94.145 187.075 94.1266C188.046 94.1081 188.965 94.092 189.87 94.092C191.344 94.092 192.529 94.1404 193.602 94.2443C194.904 94.3712 196.273 94.9112 196.926 95.5573C211.765 110.22 227.227 125.674 242.882 141.49C243.48 142.092 243.985 143.352 244.061 144.419C244.24 146.966 244.205 149.613 244.169 152.172C244.155 153.22 244.139 154.302 244.139 155.368V157.676H256.861V155.368C256.861 153.974 256.865 152.597 256.87 151.233C256.881 147.132 256.893 143.258 256.796 139.314C256.751 137.415 255.34 135.795 254.738 135.186C239.543 119.863 223.208 103.442 203.334 83.5093L203.276 83.4516C202.463 82.6347 201.234 81.4024 199.601 81.3609C196.638 81.2871 193.728 81.2778 191.523 81.2778Z" fill="url(#paint2_linear_81_151)"/>
<path d="M67.2378 212.707C67.4423 215.107 68.5264 217.617 69.9986 219.106C86.6045 235.875 102.916 252.135 120.992 270.129C121.746 270.879 123.28 272.146 125.09 272.197C127.122 272.255 129.291 272.282 132.12 272.282C133.34 272.282 134.566 272.278 135.802 272.273C137.052 272.269 138.308 272.264 139.58 272.264H141.877V259.787H139.58C138.533 259.787 137.541 259.81 136.583 259.833C135.701 259.854 134.867 259.874 134.054 259.874C132.786 259.874 131.771 259.824 130.859 259.713C129.355 259.531 127.885 258.958 127.198 258.287C121.619 252.825 115.99 247.215 110.546 241.792C102.726 233.999 94.6387 225.943 86.5379 218.157C80.9659 212.804 77.9823 208.447 79.2203 202.018C79.2869 201.677 79.2708 201.39 79.2593 201.217C79.2846 199.699 78.8872 198.506 78.0742 197.666C76.8936 196.448 75.279 196.448 74.7461 196.448C74.4268 196.448 74.1145 196.464 73.8389 196.48C73.6046 196.491 73.3841 196.505 73.1981 196.505C73.1291 196.505 73.0648 196.505 73.0005 196.498L72.8834 196.489C72.5044 196.459 72.0749 196.427 71.6408 196.427C71.1034 196.427 69.4703 196.427 68.2714 197.668C67.4423 198.527 67.0472 199.738 67.0931 201.273C67.1368 202.727 67.1184 204.231 67.1 205.687C67.0656 207.974 67.0357 210.342 67.2378 212.707Z" fill="url(#paint3_linear_81_151)"/>
<path d="M324.239 171.559C324.246 166.461 324.253 161.364 324.253 156.264V137.21C324.253 101.698 324.251 64.9774 324.315 28.8634C324.32 26.2558 323.75 23.1267 319.262 22.0629C314.078 20.8329 308.816 19.4899 303.729 18.1907C294.551 15.8462 285.063 13.4232 275.595 11.5563C239.278 4.39584 201.551 0.763672 163.461 0.763672C147.009 0.763672 130.141 1.4398 113.326 2.7759C77.4176 5.6258 41.6241 11.9832 6.94234 21.6706C1.7217 23.129 0.66517 26.1866 0.685842 30.3241C0.807572 54.1432 0.793792 78.3661 0.782308 101.791C0.780011 108.194 0.775417 114.596 0.775417 120.999H0.754746V123.307C0.754746 130.89 0.750152 138.47 0.745559 146.053C0.734075 167.555 0.722591 189.789 0.809869 211.66C0.832837 217.185 1.25315 222.898 2.06163 228.64C3.89218 241.65 7.59234 254.524 13.0587 266.902C18.1347 278.396 24.9172 289.872 33.2178 301.006C49.1508 322.379 67.8353 341.422 90.3417 359.22C110.069 374.822 132.442 389.203 158.743 403.187C159.962 403.835 161.37 403.972 162.337 403.972C164.12 403.972 165.962 403.519 167.264 402.765C169.947 401.207 172.685 399.631 175.33 398.106C186.399 391.732 197.844 385.144 208.655 377.919C226.329 366.106 241.485 354.346 254.997 341.962C270.248 327.984 283.025 313.578 294.059 297.921C314.616 268.753 324.503 239.596 324.29 208.787C324.203 196.384 324.221 183.764 324.239 171.559ZM308.635 102.024C308.642 109.078 308.646 116.13 308.646 123.184C308.646 130.85 308.628 138.648 308.61 146.187C308.57 163.037 308.529 180.459 308.692 197.6C308.979 227.673 298.467 256.128 276.553 284.592C260.087 305.979 239.251 325.437 214.622 342.428C202.283 350.938 189.091 358.717 176.332 366.238C172.517 368.485 168.573 370.811 164.71 373.121C164.308 373.361 163.447 373.603 162.422 373.603C161.584 373.603 160.978 373.442 160.691 373.292C111.376 347.361 75.7317 319.179 48.5237 284.599C26.3389 256.409 15.7621 226.607 16.187 193.493C16.7244 151.6 16.5476 109.007 16.3753 67.8158C16.3317 57.4869 16.288 46.805 16.2559 36.3008C16.2467 33.1394 16.8025 32.3871 19.7631 31.561C64.6496 19.0468 112.706 12.7009 162.599 12.7009C165.987 12.7009 169.437 12.7309 172.852 12.7863C218.504 13.5524 263.034 19.8591 305.206 31.5287C308.182 32.3525 308.782 33.1417 308.759 36.2177C308.598 58.1561 308.616 80.4568 308.635 102.024Z" fill="url(#paint4_linear_81_151)"/>
<defs>
<linearGradient id="paint0_linear_81_151" x1="162.46" y1="18.3569" x2="162.46" y2="283.489" gradientUnits="userSpaceOnUse">
<stop/>
<stop offset="1" stop-color="#494646"/>
</linearGradient>
<linearGradient id="paint1_linear_81_151" x1="162.071" y1="44.6084" x2="162.071" y2="356.35" gradientUnits="userSpaceOnUse">
<stop/>
<stop offset="1" stop-color="#494646"/>
</linearGradient>
<linearGradient id="paint2_linear_81_151" x1="262.492" y1="89.6638" x2="297.034" y2="240.743" gradientUnits="userSpaceOnUse">
<stop/>
<stop offset="1" stop-color="#838383"/>
</linearGradient>
<linearGradient id="paint3_linear_81_151" x1="137.671" y1="196.427" x2="226.02" y2="309.96" gradientUnits="userSpaceOnUse">
<stop/>
<stop offset="1" stop-color="#838383"/>
</linearGradient>
<linearGradient id="paint4_linear_81_151" x1="162.5" y1="0.763672" x2="162.5" y2="403.972" gradientUnits="userSpaceOnUse">
<stop/>
<stop offset="1" stop-color="#494646"/>
</linearGradient>
</defs>
</svg>
