<svg width="341" height="425" viewBox="0 0 341 425" fill="none" xmlns="http://www.w3.org/2000/svg">
<path d="M317.988 49.4088V39.5307C316.164 38.9341 314.652 38.3787 313.108 37.947C284.631 29.98 255.668 24.6565 226.257 21.7462C212.208 20.3565 198.157 19.4883 184.101 19.1439L184.103 19.1342C180.868 19.0566 177.636 19.0105 174.402 18.9887C174.047 18.9862 173.692 18.9862 173.339 18.9838C172.376 18.979 171.415 18.9741 170.452 18.9741C169.492 18.9741 168.528 18.979 167.565 18.9838C167.21 18.9862 166.856 18.9862 166.503 18.9887C163.271 19.0105 160.036 19.0566 156.802 19.1342L156.804 19.1439C142.748 19.4883 128.696 20.3565 114.647 21.7462C85.2339 24.6565 56.2717 29.98 27.7971 37.947C26.2522 38.3787 24.7411 38.9341 22.9162 39.5307V49.4088C22.9162 101.05 23.2783 152.694 22.7762 204.33C22.4889 233.838 31.517 259.98 47.7264 284.041C50.9876 288.882 54.5578 293.509 58.9487 297.625C58.128 296.425 57.3266 295.212 56.4865 294.024C38.1287 268.037 28.4344 239.518 28.823 207.243C29.4434 155.774 29.0668 104.29 28.8834 52.8114C28.8665 48.184 30.24 46.3578 34.6164 45.1233C75.3344 34.0229 116.636 27.8118 158.561 26.8296C158.561 26.8296 166.346 26.718 170.228 26.7107C170.303 26.7107 170.378 26.7107 170.452 26.7107C170.527 26.7107 170.602 26.7107 170.677 26.7107C174.558 26.718 178.445 26.7665 182.336 26.8562L182.343 26.8271C224.256 27.7196 265.573 33.6397 306.288 45.1209C310.665 46.3554 312.038 48.1816 312.021 52.809C311.838 104.288 311.464 155.769 312.082 207.24C312.47 239.516 302.776 268.034 284.418 294.021C283.578 295.207 282.777 296.422 281.956 297.623C286.347 293.507 289.917 288.88 293.178 284.039C309.385 259.975 318.416 233.836 318.129 204.327C317.626 152.694 317.988 101.05 317.988 49.4088Z" fill="url(#paint0_linear_81_188)"/>
<path d="M295.102 201.077C298.535 199.763 301.378 197.325 303.22 194.078C307.659 186.252 305.364 176.281 297.997 171.38C297.497 171.048 296.975 170.742 296.44 170.465V62.7182H294.279C262.869 51.7002 233.547 46.5683 202.039 46.5683L197.483 46.578L199.284 50.1019C200.542 52.566 201.493 55.1853 202.109 57.8846L202.541 59.7739L204.472 59.7666C204.72 59.7666 204.974 59.7666 205.22 59.7666C232.997 59.7666 261.517 64.8718 283.783 73.7992V169.537C280.319 170.718 277.275 173.041 275.076 176.221C273.833 178.015 272.778 178.593 270.739 178.593C270.615 178.593 270.492 178.59 270.364 178.585C268.223 178.515 265.952 178.483 263.214 178.483C261.196 178.483 259.149 178.5 257.17 178.52C255.347 178.537 253.465 178.551 251.616 178.554C249.969 178.556 248.323 178.556 246.64 178.556H242.155C242.151 177.85 242.143 177.154 242.136 176.468C242.105 173.099 242.073 169.915 242.216 166.745C242.385 162.996 241.214 160.09 238.419 157.328C231.539 150.532 224.589 143.569 217.869 136.839C210.845 129.803 203.579 122.528 196.38 115.422C194.502 113.569 191.63 112.778 189.568 112.657C187.688 112.548 185.643 112.497 183.13 112.497C181.733 112.497 180.304 112.511 178.923 112.526C178.254 112.533 177.576 112.54 176.893 112.545C176.861 112.041 176.84 111.575 176.837 111.122C176.83 107.991 176.83 104.86 176.832 101.729C176.835 95.5829 176.837 89.2263 176.772 82.9667C176.755 81.497 177.04 80.9731 178.293 80.1607C184.458 76.159 187.318 70.2122 186.343 63.4166C185.383 56.7059 181.53 52.03 175.205 49.8934C173.516 49.3234 171.754 49.0324 169.965 49.0324C163.508 49.0324 157.521 52.7891 154.714 58.6025C152.932 62.2913 152.621 66.5016 153.835 70.4596C155.027 74.3473 157.651 77.8349 161.226 80.2795C161.403 80.4008 161.598 80.5269 161.799 80.6554C162.054 80.8204 162.438 81.0702 162.689 81.2618C162.839 83.2578 162.81 85.3095 162.779 87.4753C162.776 87.6063 162.776 87.7372 162.774 87.8682C161.926 87.8682 161.089 87.8706 160.261 87.873C158.728 87.8755 157.224 87.8803 155.74 87.8803C152.181 87.8803 149.48 87.8609 146.975 87.8197C146.559 87.8124 145.698 87.3564 145.128 87.0557C141.968 85.3823 138.864 84.5359 135.897 84.5359C132.259 84.5359 128.834 85.7946 125.713 88.2805C123.811 89.7963 122.189 91.574 120.622 93.2935C119.804 94.1908 119.034 95.0373 118.223 95.8497C112.907 101.185 107.589 106.518 102.271 111.852C92.5988 121.55 82.5979 131.581 72.7757 141.462C71.6363 142.606 70.468 144.008 70.4221 145.713C70.3063 149.858 70.3208 153.915 70.3352 158.211C70.3401 159.603 70.3449 161.007 70.3449 162.423V164.972L82.8514 164.344L82.9938 162.19C83.0711 161.019 83.1266 159.882 83.1797 158.783C83.3004 156.275 83.4163 153.906 83.7711 151.638C84.0197 150.037 84.6643 148.507 85.4126 147.741C91.5681 141.428 97.9577 135.12 104.137 129.018C105.863 127.313 107.592 125.608 109.315 123.9C112.726 120.522 116.217 117.083 119.594 113.758C120.525 112.841 121.457 111.922 122.394 111C126.213 115.601 130.71 117.932 135.789 117.932C137.119 117.932 138.504 117.769 139.904 117.449C147.894 115.623 152.213 110.142 152.763 101.147H162.837C162.853 101.423 162.863 101.69 162.863 101.949C162.861 104.53 162.858 107.108 162.858 109.688C162.856 119.557 162.853 129.76 162.682 139.781C162.663 140.965 162.006 142.555 161.185 143.402C153.772 151.058 146.137 158.761 138.755 166.209L133.136 172.38L151.383 172.38L169.88 154.306C174.629 159.205 193.134 178.294 193.134 178.294H179.886L169.627 167.987L159.368 178.294H130.263V178.396H126.732L126.019 179.143C125.329 179.866 124.629 180.603 123.907 181.362C122.997 182.32 122.056 183.312 121.064 184.348L119.292 186.198L121.233 187.869C121.848 188.4 122.423 188.878 122.978 189.339C124.055 190.231 124.981 191.005 125.812 191.832C130.046 196.05 134.343 200.35 138.499 204.509C145.845 211.86 153.442 219.461 160.968 226.887C162.554 228.451 163.138 229.858 163.121 232.072C163.003 248.399 162.986 264.597 163.071 280.211L163.083 282.624H163.121V293.747C158.791 294.925 154.873 297.414 151.93 300.887C148.5 304.937 146.613 310.093 146.613 315.404C146.613 327.775 156.63 337.84 168.944 337.84C181.257 337.84 191.275 327.775 191.275 315.404C191.275 310.486 189.713 305.812 186.758 301.891C184.272 298.59 180.876 296.014 177.062 294.508V270.171C177.453 270.175 177.839 270.178 178.223 270.183C179.42 270.195 180.547 270.207 181.687 270.207C183.543 270.207 185.061 270.173 186.464 270.1C186.597 270.093 186.722 270.091 186.843 270.091C187.031 270.091 187.166 270.1 187.263 270.11C187.299 270.265 187.343 270.532 187.364 270.961C187.731 277.883 193.288 283.999 200.578 285.506C201.742 285.746 202.895 285.867 204.011 285.867C210.103 285.867 214.543 282.217 217.729 279.037C236.442 260.375 252.048 244.788 266.838 229.979C266.92 229.897 267.007 229.812 267.094 229.724C268.105 228.73 269.491 227.365 269.556 225.534C269.701 221.408 269.681 217.217 269.664 213.167C269.657 211.77 269.652 210.371 269.652 208.967V206.541H256.241V208.967C256.241 210.007 256.226 211.045 256.214 212.049C256.183 214.445 256.151 216.71 256.294 219.036C256.393 220.661 255.924 221.723 254.51 223.096C250.259 227.217 246.044 231.495 241.967 235.632C240.468 237.155 238.967 238.678 237.463 240.197C231.865 245.843 226.269 251.494 220.548 257.273L217.727 260.123C213.601 255.136 209.464 252.803 204.781 252.803C201.585 252.803 198.097 253.926 194.114 256.237C193.679 256.49 192.948 256.657 192.25 256.662C191.808 256.664 191.367 256.667 190.927 256.667C189.281 256.667 187.601 256.645 185.974 256.623C184.332 256.601 182.635 256.579 180.96 256.579C179.84 256.579 178.826 256.589 177.866 256.608C177.808 256.608 177.75 256.611 177.692 256.611C177.409 256.611 177.204 256.594 177.059 256.575V229.86C177.289 229.062 177.755 228.223 178.274 227.699C186.486 219.41 195.183 210.752 205.647 200.451L207.558 198.486L187.571 198.486C187.571 198.486 176.152 209.828 169.748 216.361L146.004 192.15H159.165L169.627 202.661L180.089 192.15H206.425L208.839 192.138H214.378L215.054 191.558C215.443 191.226 215.836 190.891 216.23 190.556C217.15 189.775 218.098 188.968 219.054 188.129L220.939 186.477L219.23 184.644C218.518 183.88 217.912 183.22 217.372 182.633C216.365 181.539 215.571 180.676 214.731 179.829C210.579 175.658 206.427 171.489 202.273 167.322C194.459 159.481 186.379 151.374 178.45 143.38L178.312 143.242C177.943 142.871 177.192 142.117 177.006 141.741C176.859 137.414 176.878 133.107 176.898 128.55C176.902 127.74 176.905 126.927 176.907 126.107C177.313 126.102 177.716 126.098 178.112 126.093C179.246 126.078 180.318 126.066 181.387 126.066C183.263 126.066 184.772 126.11 186.14 126.207C187.089 126.275 188.282 126.794 188.912 127.419C202.396 140.761 214.854 153.248 226.998 165.598C227.641 166.25 228.193 167.599 228.203 168.542C228.336 180.797 228.295 191.861 228.08 202.365C228.056 203.546 227.38 205.156 226.542 206.03C222.081 210.681 217.435 215.321 212.94 219.807C210.35 222.395 207.67 225.07 205.049 227.724C202.719 230.086 200.472 232.484 198.092 235.021C196.986 236.2 195.859 237.403 194.688 238.64L190.807 242.736H196.436C197.411 242.736 198.282 242.714 199.127 242.692C199.832 242.675 200.501 242.658 201.126 242.658C202 242.658 202.698 242.692 203.323 242.765C203.815 242.823 204.308 242.852 204.781 242.852C209.056 242.852 211.837 240.524 213.785 238.497C221.726 230.222 228.922 222.793 236.55 215.668C240.907 211.596 242.621 207.293 242.107 201.71C241.875 199.193 241.931 196.605 241.991 193.867C242.001 193.375 242.013 192.875 242.023 192.368C243.65 192.368 245.262 192.366 246.863 192.363C249.187 192.361 251.488 192.358 253.766 192.358C259.497 192.358 266.249 192.37 273 192.467C273.23 192.674 273.609 193.108 273.968 193.685C275.612 196.328 277.852 198.465 280.51 199.94C276.546 262.546 238.892 315.281 168.567 356.709C98.6408 315.513 61.0127 263.135 56.6942 200.983C60.2547 199.729 63.2963 197.216 66.1423 193.21C66.4319 192.802 67.1803 192.373 67.453 192.346C72.8119 192.244 78.2698 192.218 83.549 192.191C88.0317 192.169 92.6664 192.147 97.2287 192.079H97.3252C97.5256 192.079 97.6728 192.089 97.7815 192.101C97.796 192.242 97.8032 192.451 97.7935 192.749C97.6584 196.928 97.5353 201.793 97.767 206.638C97.8684 208.734 98.9063 211.115 100.355 212.566C111.833 224.064 123.589 235.661 134.956 246.878L138.671 250.545C140.368 252.221 142.065 253.832 143.861 255.537C144.691 256.325 145.534 257.125 146.391 257.945L149.596 261.015L150.427 256.645C152.051 248.101 149.934 241.763 143.569 236.093C135.315 228.745 127.388 220.683 119.724 212.888C117.491 210.618 115.183 208.271 112.897 205.971C112.224 205.295 111.645 204.08 111.635 203.321C111.478 191.502 111.483 179.759 111.652 168.416C111.664 167.553 112.272 166.226 113.004 165.46C120.067 158.06 127.144 150.961 133.136 144.993C136.31 141.83 139.516 138.76 142.91 135.505C144.45 134.028 146.014 132.529 147.607 130.992L151.93 126.818H145.934C145.017 126.818 144.121 126.837 143.255 126.859C142.41 126.879 141.613 126.898 140.822 126.898C139.702 126.898 138.792 126.859 137.956 126.779C137.551 126.74 137.148 126.719 136.754 126.719C132.65 126.719 129.998 128.875 128.144 130.754C119.207 139.81 110.211 148.75 101.402 157.323C98.7446 159.911 97.6391 162.622 97.8104 166.119C97.977 169.464 97.9408 172.794 97.9046 176.315C97.8973 177.062 97.8877 177.824 97.8829 178.593C97.1925 178.643 96.5673 178.68 95.9662 178.685C92.8305 178.702 89.6949 178.709 86.5592 178.714C80.464 178.726 74.1589 178.74 67.9527 178.83H67.8393C66.6975 178.83 66.3885 178.711 65.6933 177.453C63.668 173.778 60.2644 171.048 56.18 169.755V73.7968C78.3881 64.8936 106.843 59.7884 134.557 59.7642L136.479 59.7618L136.909 57.8798C137.524 55.178 138.475 52.5612 139.733 50.1019L141.543 46.5635L137.582 46.5683C106.201 46.6047 76.9904 51.7366 45.6843 62.7182H43.5215V170.795C36.439 174.516 33.062 182.437 35.2731 190.469C36.3256 194.291 38.6767 197.444 41.9621 199.484C42.4473 214.957 45.0543 230.091 49.718 244.487C54.722 259.931 62.251 275.026 72.1022 289.357C82.2938 304.185 95.2951 318.666 110.744 332.398C126.671 346.557 145.705 360.366 167.314 373.446L168.56 374.2L169.806 373.446C191.27 360.453 210.195 346.739 226.055 332.682C241.441 319.045 254.411 304.668 264.607 289.949C274.463 275.72 282.031 260.736 287.098 245.409C291.793 231.223 294.484 216.318 295.102 201.077ZM292.539 185.592C292.543 186.555 292.184 187.452 291.525 188.117C290.83 188.82 289.869 189.208 288.824 189.208H288.766C286.856 189.184 285.355 187.576 285.35 185.548C285.345 183.467 286.765 181.985 288.8 181.942H288.884C290.924 181.942 292.527 183.545 292.539 185.592ZM173.569 65.6018C173.569 67.6972 171.978 69.3367 169.95 69.3367H169.919C169.002 69.3294 168.13 68.9414 167.469 68.2454C166.762 67.5032 166.395 66.5283 166.433 65.5C166.501 63.681 168.212 62.027 170.025 62.027H170.076C172.005 62.0609 173.571 63.664 173.569 65.6018ZM139.632 101.205C139.646 102.201 139.238 103.196 138.519 103.931C137.843 104.619 136.988 104.998 136.112 104.998H136.064C134.162 104.969 132.387 103.094 132.416 101.137C132.445 99.0753 133.742 97.7972 135.801 97.7972H135.895C137.862 97.8336 139.607 99.427 139.632 101.205ZM168.941 325.166C163.58 325.166 159.22 320.783 159.22 315.399C159.22 310.015 163.582 305.63 168.941 305.63C174.3 305.63 178.662 310.013 178.662 315.399C178.662 320.786 174.3 325.166 168.941 325.166ZM204.008 272.79H203.95C201.809 272.761 200.544 271.466 200.571 269.324C200.595 267.428 201.949 266.05 203.789 266.05H203.808C205.698 266.06 207.48 267.702 207.477 269.428C207.472 271.344 205.98 272.79 204.008 272.79ZM54.6182 185.837C54.6206 186.647 54.1717 187.581 53.4209 188.337C52.6461 189.116 51.6805 189.581 50.838 189.581H50.797C50.0028 189.567 49.1724 189.162 48.5183 188.471C47.7506 187.658 47.3282 186.589 47.3644 185.538C47.432 183.479 48.8659 182.041 50.8525 182.041H50.8984C52.9092 182.063 54.6134 183.8 54.6182 185.837Z" fill="url(#paint1_linear_81_188)"/>
<path d="M200.999 85.1035C199.677 85.1035 198.349 85.1084 197.016 85.1108C195.677 85.1132 194.332 85.1181 192.98 85.1181H190.566V98.6486H192.98C194.137 98.6486 195.249 98.6268 196.324 98.6074C197.345 98.588 198.31 98.571 199.261 98.571C200.811 98.571 202.057 98.6219 203.184 98.7311C204.553 98.8645 205.991 99.432 206.677 100.111C222.273 115.521 238.524 131.763 254.977 148.386C255.605 149.019 256.136 150.343 256.215 151.464C256.404 154.141 256.367 156.923 256.329 159.613C256.314 160.714 256.297 161.851 256.297 162.972V165.397H269.668V162.972C269.668 161.507 269.673 160.059 269.678 158.625C269.69 154.316 269.702 150.244 269.6 146.099C269.552 144.103 268.07 142.4 267.438 141.76C251.467 125.656 234.299 108.398 213.412 87.4487L213.351 87.3881C212.497 86.5296 211.205 85.2345 209.489 85.1908C206.375 85.1132 203.317 85.1035 200.999 85.1035Z" fill="url(#paint2_linear_81_188)"/>
<path d="M70.3838 223.232C70.5987 225.755 71.738 228.393 73.2854 229.958C90.738 247.582 107.882 264.67 126.879 283.583C127.671 284.371 129.283 285.702 131.186 285.756C133.322 285.816 135.601 285.845 138.575 285.845C139.856 285.845 141.145 285.841 142.444 285.836C143.757 285.831 145.078 285.826 146.415 285.826H148.829V272.713H146.415C145.314 272.713 144.271 272.737 143.265 272.761C142.338 272.783 141.462 272.805 140.607 272.805C139.275 272.805 138.208 272.751 137.249 272.635C135.668 272.443 134.123 271.842 133.402 271.136C127.538 265.396 121.622 259.5 115.901 253.8C107.681 245.61 99.1819 237.144 90.668 228.961C84.8118 223.334 81.6761 218.755 82.9772 211.998C83.0472 211.64 83.0303 211.339 83.0183 211.157C83.0448 209.561 82.6272 208.307 81.7727 207.424C80.5319 206.144 78.8349 206.144 78.2749 206.144C77.9394 206.144 77.6111 206.161 77.3214 206.178C77.0752 206.19 76.8435 206.205 76.6479 206.205C76.5755 206.205 76.5079 206.205 76.4403 206.197L76.3172 206.188C75.9189 206.156 75.4675 206.122 75.0113 206.122C74.4465 206.122 72.7302 206.122 71.4701 207.427C70.5987 208.329 70.1835 209.602 70.2318 211.215C70.2776 212.743 70.2583 214.324 70.239 215.855C70.2028 218.258 70.1714 220.746 70.3838 223.232Z" fill="url(#paint3_linear_81_188)"/>
<path d="M340.486 179.987C340.493 174.63 340.5 169.272 340.5 163.912V143.887C340.5 106.565 340.498 67.9713 340.565 30.0159C340.57 27.2753 339.972 23.9866 335.255 22.8686C329.807 21.5759 324.276 20.1644 318.929 18.799C309.283 16.3349 299.312 13.7884 289.361 11.8264C251.193 4.30077 211.542 0.483398 171.509 0.483398C154.218 0.483398 136.49 1.194 118.818 2.59823C81.079 5.59343 43.4605 12.275 7.01039 22.4563C1.52356 23.9891 0.413155 27.2026 0.43488 31.5511C0.562818 56.5846 0.548334 82.0427 0.536265 106.662C0.533851 113.392 0.529023 120.119 0.529023 126.849H0.507298V129.275C0.507298 137.244 0.50247 145.211 0.497642 153.181C0.485572 175.779 0.473503 199.147 0.565232 222.133C0.589371 227.939 1.03112 233.944 1.88082 239.978C3.80471 253.652 7.69353 267.183 13.4386 280.192C18.7734 292.272 25.9017 304.333 34.6256 316.035C51.3709 338.497 71.0081 358.511 94.6621 377.217C115.395 393.614 138.909 408.728 166.551 423.425C167.833 424.107 169.312 424.25 170.329 424.25C172.202 424.25 174.138 423.775 175.507 422.982C178.326 421.345 181.203 419.688 183.984 418.085C195.617 411.386 207.645 404.462 219.008 396.869C237.583 384.454 253.512 372.095 267.713 359.078C283.742 344.388 297.17 329.248 308.767 312.792C330.371 282.137 340.763 251.494 340.539 219.114C340.447 206.078 340.466 192.814 340.486 179.987ZM324.086 106.906C324.093 114.321 324.098 121.732 324.098 129.146C324.098 137.203 324.078 145.398 324.059 153.321C324.018 171.031 323.975 189.341 324.146 207.356C324.448 238.962 313.399 268.868 290.368 298.784C273.063 321.261 251.164 341.711 225.279 359.568C212.312 368.513 198.446 376.688 185.037 384.592C181.027 386.954 176.883 389.399 172.822 391.827C172.4 392.079 171.495 392.334 170.418 392.334C169.537 392.334 168.9 392.164 168.598 392.006C116.769 364.753 79.3072 335.134 50.7119 298.791C27.3959 269.164 16.2798 237.842 16.7264 203.039C17.2913 159.011 17.1054 114.245 16.9243 70.9543C16.8785 60.0989 16.8326 48.8723 16.7988 37.8325C16.7892 34.5099 17.3733 33.7192 20.4849 32.851C67.66 19.6988 118.166 13.0293 170.604 13.0293C174.164 13.0293 177.79 13.0608 181.38 13.119C229.359 13.9242 276.16 20.5525 320.482 32.817C323.61 33.6829 324.24 34.5123 324.216 37.7452C324.047 60.8022 324.066 84.2399 324.086 106.906Z" fill="url(#paint4_linear_81_188)"/>
<defs>
<linearGradient id="paint0_linear_81_188" x1="170.452" y1="18.9741" x2="170.452" y2="297.625" gradientUnits="userSpaceOnUse">
<stop stop-color="white"/>
<stop offset="1" stop-color="#494646"/>
</linearGradient>
<linearGradient id="paint1_linear_81_188" x1="170.04" y1="46.5635" x2="170.04" y2="374.2" gradientUnits="userSpaceOnUse">
<stop stop-color="white"/>
<stop offset="1" stop-color="#494646"/>
</linearGradient>
<linearGradient id="paint2_linear_81_188" x1="275.587" y1="93.917" x2="311.889" y2="252.7" gradientUnits="userSpaceOnUse">
<stop stop-color="#DBDBDB"/>
<stop offset="1" stop-color="#838383"/>
</linearGradient>
<linearGradient id="paint3_linear_81_188" x1="144.409" y1="206.122" x2="237.261" y2="325.444" gradientUnits="userSpaceOnUse">
<stop stop-color="#8F8F8F"/>
<stop offset="1" stop-color="#838383"/>
</linearGradient>
<linearGradient id="paint4_linear_81_188" x1="170.5" y1="0.483398" x2="170.5" y2="424.25" gradientUnits="userSpaceOnUse">
<stop stop-color="white"/>
<stop offset="1" stop-color="#494646"/>
</linearGradient>
</defs>
</svg>
